<svg xmlns="http://www.w3.org/2000/svg" viewBox="0 0 500 500"><g id="freepik--Character--inject-91"><g id="freepik--character--inject-91"><path d="M209.86,399.07c-22.55-8.27-32.24-20.06-38.6-34.86-5.89-13.68-5.89-24-5.89-24s20.75,3.55,41.94,1.35S235.92,338,235.92,338Z" style="fill:#455a64"></path><g id="freepik--Top--inject-91"><path d="M259,187.31c18.94,5.35,29.46,16,45.52,34.25,17.45,19.82,23.85,28.35,23.85,28.35l-4.51,45.5c-14,2.53-28.61-11.28-52.29-39.14Z" style="fill:#37474f"></path><g id="freepik--Chest--inject-91"><path d="M272.85,236.22c-.16-33.44-7.82-46.86-14.68-49.24,0,0-24.61-9.8-51.88-5.17-7.7,1.3-20.58,5.91-30.23,9.4-6.09,2.2-14.62,18.82-16.72,38.67-1.69,16.13-1.62,29.63-.6,56.51,1.06,28.19,2,34.15,4.75,57.09,43.88,10.74,92.81-3.43,116.8-44.7-2.6-8.35-4.07-16.59-5.29-29.5C273.61,254.74,272.89,246.39,272.85,236.22Z" style="fill:#6A4DFF"></path><g id="freepik--Head--inject-91"><path d="M206.62,174.5c-.76-9.1-6.31-19.22-9.66-27.39-3.24-7.87-5.05-13.92-4-21,.61-4.18,3.74-9.65,7-10.58-2.28-15.92,10.05-22.17,16.4-23.12a67.72,67.72,0,0,0,8.81-1.67c3.5-1.13,4.5-3.78,7.42-5.87,5-3.59,13-3,15.45,3.28,3.46-3.77,7.69-3.31,12.49-1.65a8.4,8.4,0,0,1,5.6,10c6.86-3.11,12.47,2,12.75,5.92.2,2.88-.61,5.22,1,7.92,1.85,3,5.81,3.33,7.21,1.12.33,4.09-1.51,7-5.86,6.44a9.2,9.2,0,0,1,.48,7.8,8.37,8.37,0,0,1-8,5.12c-.66,2.18-.92,4.2-2.47,6a14.58,14.58,0,0,1-5.55,4.2c-6.89,2.6-14.3,3-21.56,3.87l-8.62,1c-.5.06-3.07,0-3.41.41Z" style="fill:#263238"></path><path d="M197.54,162.34c7.07,5.55,11.13,1.18,11.13,1.18l-4,21.59c12.84,25,44.4,21.55,38.58,10.88l1.24-9.73a87.3,87.3,0,0,0,10.72.43c7.11-.37,13.53-5.43,16.19-12.88,2.77-7.78,4.45-20.75,3.53-30.44a26.36,26.36,0,0,1,.25-7.42c1.23-6.48.38-10.39-.85-16-7.21-6.9-25.68-10.41-43.24-1.68,1.09,10.1-3.44,17.64-11,20.82.11,2.71-.13,9.51-4.53,9-3.17-.36-2.47-4.36-5.43-8.15s-10.65-5-15-.12C189.54,146.05,192.12,158.08,197.54,162.34Z" style="fill:#ffbda7"></path><path d="M246.21,168.75c1.45,0,2.88,0,4.33-.05a5.44,5.44,0,0,0,2.85-.82.53.53,0,0,0,.23-.24.61.61,0,0,0,0-.44,3.38,3.38,0,0,0-3-2.06,6.28,6.28,0,0,0-4.31,1.26c-.39.33-2.05,1.7-1.24,2.2a1.32,1.32,0,0,0,.68.14Z" style="fill:#b16668"></path><path d="M244.46,186.26c-11-2.27-19.42-4.2-24.55-12.78-3.21-5.38-5.6-13.8-5.6-13.8s.3,10,3.38,17c2.37,5.4,8.9,10.28,26.27,13.27Z" style="fill:#f0997a"></path><path d="M245.05,142.94a3.16,3.16,0,1,1-3-3.45A3.22,3.22,0,0,1,245.05,142.94Z" style="fill:#263238"></path><path d="M236.24,133.45l6.92-3.38a4,4,0,0,1-1.83,5.28A3.76,3.76,0,0,1,236.24,133.45Z" style="fill:#263238"></path><path d="M260.79,130.07l7.39,2.34a3.71,3.71,0,0,1-4.73,2.6A4.07,4.07,0,0,1,260.79,130.07Z" style="fill:#263238"></path><path d="M272.42,143.83a3.15,3.15,0,1,1-3-3.44A3.2,3.2,0,0,1,272.42,143.83Z" style="fill:#263238"></path></g></g><path d="M175.37,191.51c-11.69,4.5-21.7,10.59-25.33,26.13-3.76,16.09,4.18,36.24,14.67,58.65,8.22,17.56,19,30.47,29.8,33.67s11.69-41.73,11.69-41.73S189.41,212.19,175.37,191.51Z" style="fill:#37474f"></path><path d="M215.46,205.57c-.07,8.35-14,32.78-21,43.45s-9.09,15.86-10.25,25,1.64,24.05,7.25,33.1c3.12,5,16.46,3.15,27.3-11.82s11.38-28.67,13.48-46.37c1.63-13.8,3.65-22,4.88-29.23.48-2.88,4.41-10.43,7.27-19.77s.48-16.09.62-19.95a40.93,40.93,0,0,1,1.86-11.63,65.89,65.89,0,0,0,2.32-7.05c1.25-5.9-.41-8.2-1.94-8.73.75-4.16.09-6.83-2.29-7.83.59-3.7-1.71-6.61-3.52-5.74s-4.05,5-4.05,5a7,7,0,0,0-4.41.57c-2,1.11-6.73,7.49-9.92,10.89s-3,7.87-5.07,13.69a19.38,19.38,0,0,0-3.41-4.91c-2.21-2.27-6.65-1.91-5.36,2.62s2.18,10.82,2.61,19.1,3.6,19.62,3.6,19.62" style="fill:#ffbda7"></path><path d="M249.89,156a6.52,6.52,0,0,0-.71-2.2,3.55,3.55,0,0,0-1.52-1.45,13.21,13.21,0,0,0,.15-4.26,5.36,5.36,0,0,0-.82-2.21,4.15,4.15,0,0,0-1.6-1.37A7.48,7.48,0,0,0,245,141a5.18,5.18,0,0,0-1-1.66,2.71,2.71,0,0,0-1.84-.94,2.9,2.9,0,0,0-1.85.89,11.8,11.8,0,0,0-1.26,1.4,25,25,0,0,0-1.85,2.83,7.12,7.12,0,0,0-4.12.53,13.57,13.57,0,0,0-3.25,2.94c-1.89,2.14-3.65,4.36-5.5,6.5-.46.54-.93,1.07-1.4,1.59a10.8,10.8,0,0,0-1.34,1.73,15.18,15.18,0,0,0-1.66,4c-.7,2.53-1.2,5.08-2,7.53a21.12,21.12,0,0,0-1.43-2.31,17,17,0,0,0-1.07-1.34,7,7,0,0,0-1.27-1.22,4.42,4.42,0,0,0-3.42-.82,2.57,2.57,0,0,0-1.54,1,3,3,0,0,0-.44,1.77,21.7,21.7,0,0,0,.74,3.36c.26,1.09.48,2.2.68,3.31.4,2.21.69,4.45.92,6.7.5,4.47.51,9,1.34,13.5a130.45,130.45,0,0,0,3,13.23,131.36,131.36,0,0,1-2.77-13.27c-.76-4.46-.65-9-1.14-13.51-.23-2.25-.5-4.5-.89-6.74-.19-1.11-.41-2.23-.67-3.33a21.68,21.68,0,0,1-.7-3.26,2.41,2.41,0,0,1,.36-1.46,2,2,0,0,1,1.22-.79,3.88,3.88,0,0,1,3,.74,7.79,7.79,0,0,1,1.16,1.14c.36.42.71.86,1,1.31a19.83,19.83,0,0,1,1.71,2.86l.31.65.24-.68c1-2.69,1.5-5.51,2.26-8.21a14.55,14.55,0,0,1,1.62-3.82,9.85,9.85,0,0,1,1.27-1.62l1.43-1.59c1.86-2.15,3.64-4.36,5.53-6.46a12.9,12.9,0,0,1,3-2.74,6.42,6.42,0,0,1,3.9-.4l.3.05.15-.26a26,26,0,0,1,1.93-3,11,11,0,0,1,1.15-1.29,2.19,2.19,0,0,1,1.3-.7c.94.05,1.75,1.07,2.14,2.09a6.7,6.7,0,0,1,.32,3.36l0,.29.27.11a3.48,3.48,0,0,1,1.53,1.23,4.65,4.65,0,0,1,.72,1.91,13.08,13.08,0,0,1-.16,4.27l-.05.3.28.09c1.22.44,1.86,1.87,2.05,3.22a13.57,13.57,0,0,1-.15,4.26c-.45,2.85-1.7,5.51-2.58,8.32a37.11,37.11,0,0,0-1.58,8.66,27.16,27.16,0,0,0,0,4.42c.13,1.47.35,2.91.49,4.36a36.09,36.09,0,0,1,0,8.69,46,46,0,0,1-2.15,8.44c-.93,2.76-2,5.5-3,8.21l-1.62,4.07a26.57,26.57,0,0,0-1.35,4.16,24.31,24.31,0,0,1,1.43-4.13l1.69-4c1.13-2.7,2.21-5.41,3.19-8.17a42.67,42.67,0,0,0,2.29-8.48,37,37,0,0,0,.08-8.8c-.13-1.46-.34-2.91-.47-4.35a27.43,27.43,0,0,1,.09-4.34,36.22,36.22,0,0,1,1.6-8.52c.88-2.76,2.17-5.44,2.65-8.39A14.8,14.8,0,0,0,249.89,156Z" style="fill:#b16668"></path><path d="M191.49,307.1A5.32,5.32,0,0,0,194.3,309a10.91,10.91,0,0,0,3.37.27,19.43,19.43,0,0,0,6.51-1.9,30.64,30.64,0,0,0,5.8-3.63,40.58,40.58,0,0,0,5.07-4.65,51.61,51.61,0,0,0,8-11.3,58,58,0,0,0,5-12.93c2.38-9,3.05-18.35,4.27-27.58.59-4.63,1.32-9.24,2.16-13.82s1.84-9.15,2.66-13.74c-.77,4.6-1.71,9.17-2.5,13.76s-1.49,9.2-2,13.83c-1.12,9.24-1.66,18.6-4,27.7a58.33,58.33,0,0,1-5,13.12c-.54,1-1.09,2.07-1.72,3.06l-.91,1.51-1,1.46a49.9,49.9,0,0,1-4.21,5.65,43.15,43.15,0,0,1-5.12,4.9,30.37,30.37,0,0,1-6.1,3.66A17.81,17.81,0,0,1,197.7,310a9.52,9.52,0,0,1-3.54-.6A5.13,5.13,0,0,1,191.49,307.1Z" style="fill:#f28f8f"></path><path d="M225.32,168.31a60.08,60.08,0,0,1,.82-6.9,17.05,17.05,0,0,1,2.93-6.42,122.52,122.52,0,0,1,8.56-10.55c-2.2,4.07-4.94,7.47-7.56,11.26a19.3,19.3,0,0,0-3,6C226.4,163.8,226,166.1,225.32,168.31Z" style="fill:#f0997a"></path><path d="M244.6,144.93a2.07,2.07,0,0,0-1.72.28,4.24,4.24,0,0,0-1,1.41c-.57,1.07-1,2.26-1.48,3.41-1,2.3-2,4-3.13,6.23a30.72,30.72,0,0,0-1.56,3.3c-.4,1.13-.73,2.35-1.1,3.53-.72,2.39-1.48,4.76-2.32,7.13.37-2.48.82-4.94,1.38-7.38.28-1.22.57-2.42.93-3.66a30,30,0,0,1,1.57-3.49c1.15-2.22,2.2-3.89,3.36-6.08a35.94,35.94,0,0,1,1.83-3.3,4.47,4.47,0,0,1,1.39-1.38A2.07,2.07,0,0,1,244.6,144.93Z" style="fill:#f0997a"></path><path d="M246.88,152.73a2,2,0,0,0-1.29.53,4.28,4.28,0,0,0-.8,1.16,22.48,22.48,0,0,0-1.1,2.68,43.28,43.28,0,0,1-1.75,5.38c-.43.9-.88,1.79-1.33,2.67a24.05,24.05,0,0,0-1.24,2.62c-.69,1.81-1.27,3.7-1.87,5.59a27.92,27.92,0,0,1,1-5.91,43.82,43.82,0,0,1,2.36-5.49c.85-1.78,1.17-3.38,2-5.22a14.94,14.94,0,0,1,1.48-2.64,4.64,4.64,0,0,1,1.11-1.1A1.93,1.93,0,0,1,246.88,152.73Z" style="fill:#f0997a"></path><path d="M218,169.14c-.06,2.39-.26,4.73-.49,7.09a62.91,62.91,0,0,1-1,7,37.71,37.71,0,0,1,.12-7.13A32.2,32.2,0,0,1,218,169.14Z" style="fill:#f0997a"></path><path d="M299,198.21c.7,7.89,15.73,29.88,23.16,39.41s9.8,14.28,11.61,22.8.31,22.83-4.29,31.81c-2.55,5-15.29,4.25-26.69-9s-13-26.2-16.31-42.75c-2.61-12.9-5.15-20.46-6.87-27.22-.68-2.68-5-9.51-8.4-18.1s-1.7-15.16-2.14-18.79a38.39,38.39,0,0,0-2.65-10.84,64.63,64.63,0,0,1-2.74-6.48c-1.63-5.47-.24-7.77,1.16-8.39-1-3.87-.61-6.45,1.56-7.57-.85-3.45,1.1-6.38,2.87-5.69s4.22,4.42,4.22,4.42a6.65,6.65,0,0,1,4.21.19c2,.9,6.93,6.55,10.21,9.52s3.48,7.19,5.84,12.52a18.82,18.82,0,0,1,2.84-4.89c1.92-2.32,6.14-2.32,5.27,2.06s-1.22,10.39-1,18.23-1.87,18.8-1.87,18.8" style="fill:#ffbda7"></path><path d="M262.65,154.07a6.12,6.12,0,0,1,.49-2.12,3.45,3.45,0,0,1,1.32-1.49,12.82,12.82,0,0,1-.47-4,5,5,0,0,1,.61-2.15,4,4,0,0,1,1.41-1.42,6.87,6.87,0,0,1,.08-3.31,4.65,4.65,0,0,1,.82-1.65,2.55,2.55,0,0,1,1.66-1,2.79,2.79,0,0,1,1.82.7,10,10,0,0,1,1.29,1.22,21.84,21.84,0,0,1,2,2.54,6.71,6.71,0,0,1,3.94.18,12.83,12.83,0,0,1,3.29,2.52c1.95,1.87,3.79,3.83,5.69,5.71.48.47,1,.94,1.45,1.39a10.73,10.73,0,0,1,1.4,1.53,14.53,14.53,0,0,1,1.88,3.65c.85,2.34,1.52,4.7,2.46,7a19,19,0,0,1,1.18-2.29,15.34,15.34,0,0,1,.91-1.36,7.09,7.09,0,0,1,1.1-1.24,4.14,4.14,0,0,1,3.17-1,2.38,2.38,0,0,1,1.53.84,2.79,2.79,0,0,1,.55,1.64,20.63,20.63,0,0,1-.43,3.23c-.17,1.05-.29,2.11-.39,3.17-.21,2.13-.3,4.26-.35,6.4-.12,4.27.21,8.57-.22,12.85A126.41,126.41,0,0,1,299,198.21a124.14,124.14,0,0,0,1.58-12.74c.37-4.26-.08-8.54,0-12.84,0-2.14.12-4.29.32-6.43.09-1.07.21-2.14.37-3.2a21,21,0,0,0,.41-3.13,2.36,2.36,0,0,0-.45-1.36,1.88,1.88,0,0,0-1.22-.64,3.61,3.61,0,0,0-2.75.93,7.19,7.19,0,0,0-1,1.16q-.46.64-.87,1.32a18.1,18.1,0,0,0-1.39,2.83l-.24.64-.29-.62c-1.12-2.47-1.84-5.09-2.77-7.58a13.57,13.57,0,0,0-1.82-3.48,9.44,9.44,0,0,0-1.32-1.44c-.5-.45-1-.92-1.47-1.39-1.93-1.88-3.78-3.83-5.73-5.67a12.34,12.34,0,0,0-3.06-2.35,6.21,6.21,0,0,0-3.72-.08l-.28.08-.15-.23a25.49,25.49,0,0,0-2.06-2.66,9.73,9.73,0,0,0-1.19-1.13,2,2,0,0,0-1.28-.56c-.88.11-1.57,1.14-1.85,2.13a6.31,6.31,0,0,0-.05,3.2l.06.27-.24.13a3.29,3.29,0,0,0-1.36,1.28,4.5,4.5,0,0,0-.53,1.85,12.38,12.38,0,0,0,.49,4l.07.27-.26.12a3.62,3.62,0,0,0-1.69,3.2,13.28,13.28,0,0,0,.47,4c.65,2.66,2,5.07,3.09,7.66a35.15,35.15,0,0,1,2.15,8.06,26.17,26.17,0,0,1,.4,4.16c0,1.4-.11,2.78-.13,4.16a34.19,34.19,0,0,0,.7,8.2,42.83,42.83,0,0,0,2.69,7.8c1.09,2.54,2.28,5,3.51,7.52L278,209.4a24.54,24.54,0,0,1,1.61,3.82,25.52,25.52,0,0,0-1.67-3.79L276,205.75c-1.28-2.46-2.51-4.94-3.65-7.47a40.62,40.62,0,0,1-2.82-7.83,35.06,35.06,0,0,1-.76-8.3c0-1.39.1-2.77.11-4.15a25.66,25.66,0,0,0-.42-4.08,34.38,34.38,0,0,0-2.17-7.93c-1-2.53-2.47-5-3.15-7.71A13.82,13.82,0,0,1,262.65,154.07Z" style="fill:#b16668"></path><path d="M329.48,292.23a5,5,0,0,1-2.51,2,9.91,9.91,0,0,1-3.15.52,18.74,18.74,0,0,1-6.3-1.29,29,29,0,0,1-5.75-3,38.28,38.28,0,0,1-5.16-4,49.18,49.18,0,0,1-8.42-10,54.76,54.76,0,0,1-5.73-11.83c-2.95-8.31-4.3-17.09-6.17-25.71q-1.38-6.48-3.12-12.88c-1.14-4.27-2.44-8.49-3.56-12.77,1.07,4.29,2.32,8.53,3.42,12.8s2.12,8.58,3,12.9c1.78,8.64,3,17.44,5.88,25.85a55.07,55.07,0,0,0,5.72,12c.59.94,1.19,1.88,1.86,2.76l1,1.35,1,1.3a46.69,46.69,0,0,0,4.42,5,39.23,39.23,0,0,0,5.21,4.22,28.79,28.79,0,0,0,6,3,16.84,16.84,0,0,0,6.68,1,8.79,8.79,0,0,0,3.29-.84A4.84,4.84,0,0,0,329.48,292.23Z" style="fill:#f28f8f"></path><path d="M286.8,163.8a53.86,53.86,0,0,0-1.32-6.45,16.08,16.08,0,0,0-3.25-5.84,120,120,0,0,0-8.91-9.29c2.4,3.66,5.25,6.67,8,10a18.34,18.34,0,0,1,3.31,5.38C285.42,159.63,286,161.76,286.8,163.8Z" style="fill:#f0997a"></path><path d="M266.82,143.21a2,2,0,0,1,1.64.13,4.07,4.07,0,0,1,1.1,1.26c.62,1,1.07,2.05,1.65,3.1,1.13,2.1,2.17,3.63,3.4,5.64a27.86,27.86,0,0,1,1.73,3c.47,1,.87,2.16,1.32,3.25q1.29,3.3,2.74,6.55c-.54-2.31-1.16-4.6-1.88-6.86-.35-1.13-.72-2.24-1.16-3.38a25.92,25.92,0,0,0-1.75-3.17c-1.26-2-2.34-3.51-3.61-5.49a35.77,35.77,0,0,0-2-3,4.45,4.45,0,0,0-1.42-1.19A2,2,0,0,0,266.82,143.21Z" style="fill:#f0997a"></path><path d="M265.23,150.79a1.89,1.89,0,0,1,1.26.41,4,4,0,0,1,.84,1,20.88,20.88,0,0,1,1.25,2.45c.71,1.71,4.5,8.87,4.9,9.69.8,1.66,1.49,3.4,2.21,5.15a25.84,25.84,0,0,0-1.37-5.51,39.68,39.68,0,0,0-2.39-5c-.94-1.61-1.64-3-2.54-4.7a14.37,14.37,0,0,0-1.6-2.38,4.5,4.5,0,0,0-1.13-.95A1.81,1.81,0,0,0,265.23,150.79Z" style="fill:#f0997a"></path><path d="M293.75,164c.25,2.26.61,4.46,1,6.67a60.48,60.48,0,0,0,1.53,6.56,36.8,36.8,0,0,0-.66-6.72A31,31,0,0,0,293.75,164Z" style="fill:#f0997a"></path><path d="M266.12,155.72,255,160.16l-2.55-21.62C256.55,137.25,261.41,147.32,266.12,155.72Z" style="fill:#f0997a"></path><path d="M246.65,127.38a2.34,2.34,0,0,0-.86-.31c-.23,0-.56,0-.64.3a.45.45,0,0,0,.06.34c0,.05.29.28.32.22-.12,0-.1.09.07.13l.14.07.28.15a3.19,3.19,0,0,1,.44.31,2,2,0,0,1,.58.87,3.08,3.08,0,0,1,.13,1c0,.18,0,.36,0,.55v.24a.46.46,0,0,0,.08.27,2.63,2.63,0,0,0,.08.68c.06.18.3.4.47.21a1.2,1.2,0,0,0,.21-.34,4.83,4.83,0,0,0,.37-.88,4,4,0,0,0,.1-1,3.21,3.21,0,0,0-.5-1.68A3.28,3.28,0,0,0,246.65,127.38ZM258.29,130c0-.07,0-.15,0-.22a2.35,2.35,0,0,1,.14-.45v0l0-.09.11-.18a4.43,4.43,0,0,0,.41-.65c.19-.47-.4-.79-.79-.65l-.62.44-.06.07-.08.09c-.05.07-.1.14-.14.21a3.82,3.82,0,0,0-.26.54,3.45,3.45,0,0,0-.25,1.1,3.27,3.27,0,0,0,.09,1.12,2.26,2.26,0,0,0,.36.73l.15.21a1.11,1.11,0,0,0,.46.34c.3.12.86,0,.78-.43a1,1,0,0,0-.08-.34s-.06-.12-.05-.09a1.16,1.16,0,0,1-.11-.27c0-.15-.08-.34-.12-.51l0-.13h0a2,2,0,0,1,0-.23,3.84,3.84,0,0,1,0-.48S258.29,130,258.29,130Z" style="fill:#f0997a"></path></g><path d="M332,422.27c-2.4-2.88-5.22-8.77-6-15.07-1-8.05-2.75-26.42-4.73-44.13s-5.53-57.72-9.84-80.16c-2.19-11.41-7.11-23.7-15.12-23.87-6.11-.12-23.15,4-29.42,26.44s-5.08,35,0,52.92c3.17,11.19,22.48,52.19,25.08,59.83s2.63,9.26,2.63,9.26v15.27Z" style="fill:#ffa8a7"></path><path d="M292,433.06c-.24,7.71,9.34,9.51,13.82,11.79,2.9,1.33,6.09,3.25,9,9,9.19,14.67,24.21,18.61,43.5,15.38,13.55-2.83,14.9-12.51,9.85-16.75C365.2,451.55,292,433.06,292,433.06Z" style="fill:#263238"></path><path d="M294.61,407.49c-1.3.12-2,.84-1.91,3.12.31,5.57-2.82,15.74-.71,22.45,4.09,8.56,17.78,8.38,22.65,14.75s9.43,14.36,24.79,17,26.81-2.57,29.51-7,0-8.45-9.93-13.46c-10.55-5.31-24.69-21.64-24.69-21.65a73.07,73.07,0,0,1-5-6.74,8.52,8.52,0,0,1-1-3.61l-.75-4.44a4.31,4.31,0,0,0-.65-1.92,3.55,3.55,0,0,0-2.25-1.16,16.93,16.93,0,0,0-6.37.36c-1.39.27-2.76.58-4.13.93a13.85,13.85,0,0,0-5.46,2.36,4.53,4.53,0,0,0-1.52,2,5.56,5.56,0,0,0-.24,1.82,33.35,33.35,0,0,0,.52,5.9c.08.46.06,1.08-.39,1.2a.88.88,0,0,1-.74-.31c-1-1-1.37-2.36-2.25-3.41-1.48-1.79-3.93-2.2-6-3a7.19,7.19,0,0,1-3.12-2.08Z" style="fill:#37474f"></path><path d="M329.43,461.4c-1.32-13,20.8-26.78,32.89-17.06,4.28,2.9,10.46,9,6.94,13.71C363.76,468.22,334.74,467.65,329.43,461.4Z" style="fill:#fafafa"></path><path d="M312.66,426.15c2.76-1.8,9.2-9.59,18.63-7.46C329.67,409.38,305.41,425,312.66,426.15Z" style="fill:#fafafa"></path><path d="M336.1,424.65c-3.42-8.33-19.27,4.76-19.13,5.64-1,1.41,1.34,2.75,2.23,1.37C320.42,429.86,328.19,423.19,336.1,424.65Z" style="fill:#fafafa"></path><path d="M349.17,437.4c-3.75-9.58-26.48,5.12-20,7C332,442.56,339.32,434,349.17,437.4Z" style="fill:#fafafa"></path><path d="M323.67,438.33c2.75-1.78,9-9.4,18.36-7.51C339,422,317,437.12,323.67,438.33Z" style="fill:#fafafa"></path><path d="M358.23,401.66c-1.42-5.57-13.09-28.85-18.28-39.39-6.37-12.94-19.05-39.23-19.63-63.09s5.36-33.54,11.69-40.77c7.29-8.33,20.79-9,26.83,3.33,15.29,31.12,21.19,79.9,23.87,97.59s6.42,44.46,6.42,44.46,2.11,7.77,6.48,13.33H358.24Z" style="fill:#ffa8a7"></path><path d="M245.32,394.19c20.67,2.55,43-10.41,55.24-19.21,14-10.1,32-24.16,32-24.16l21.45,42.73s8.65,3.79,20.67,1.38,14.41-8.52,14.41-8.52-7.27-49.56-11-68.38C372.37,289.5,368.66,276.36,366,269s-9.87-18.16-21.83-18.6-18.61,4.18-40.27,18.6c-14.68,9.76-68.82,61.15-74.41,68.06S210.82,389.93,245.32,394.19Z" style="fill:#37474f"></path><path d="M363.8,395.51c-.68-2-4.69-12.64-5.38-14.67-1.34-4-10.23-33.77-11.48-38.28q-2-7-3.43-14.16c-.88-4.23-1.62-8.5-2.23-12.78q-.46-3.27-.83-6.55c-.23-2.14-.33-4.32-.73-6.44a8.64,8.64,0,0,0-2.74-5.17,5.19,5.19,0,0,0-5-1.12,8,8,0,0,0-3.91,3.59c-1.2,1.9-2.29,3.88-3.35,5.85-4.38,8.09-8.09,16.51-12.47,24.59a89.22,89.22,0,0,1-14,19.87c-5.31,5.46-11.77,10.08-19.16,12.21a33.15,33.15,0,0,1-21.06-.68,24.35,24.35,0,0,1-8.88-5.95,30.37,30.37,0,0,1-3.94-5.3,51.25,51.25,0,0,1-2.64-5c-.83-1.8-1.65-3.61-2.49-5.41-.19-.42-1-.44-.84.14a61.63,61.63,0,0,0,5.16,11.48,27.16,27.16,0,0,0,7.68,8.45c5.84,4.05,13.19,5.5,20.2,4.9A39.89,39.89,0,0,0,292.8,357a67.46,67.46,0,0,0,15.74-17.43c4.9-7.49,8.71-15.61,12.65-23.63,2-4.1,4.09-8.19,6.35-12.16a21.87,21.87,0,0,1,3.37-5.11,3.53,3.53,0,0,1,4.84-.29c1.7,1.29,2.32,3.36,2.63,5.38.33,2.17.46,4.38.71,6.56q.74,6.42,1.87,12.79c1.28,7.21,3,14.38,4.85,21.44,3.47,13.13,7.3,26,11.57,38.91a96.25,96.25,0,0,0,4.64,12c.58.07,1.19.13,1.82.17C363.83,395.58,363.81,395.54,363.8,395.51Z" style="fill:#263238"></path><path d="M326.24,294.81c-6.67,16.19-5.81,38.18,1.27,59.95l5.09-3.94C324,330.4,325.39,307.63,326.24,294.81Z" style="fill:#263238"></path><path d="M215.76,400.58c15.29,3.22,29.51-1.33,40.67-11.43s18.07-29,18.07-29l15.95,39.56s8.65,3.79,20.67,1.38,14.41-8.52,14.41-8.52-3.66-52.18-6.13-71.22c-3.48-26.85-6.73-42.57-9.43-50s-11.2-16.93-23.16-17.37-21.84,5.22-34.13,17.86-50.73,58.8-56.31,65.71-21,30.3-21,30.3S181.75,393.4,215.76,400.58Z" style="fill:#455a64"></path><path d="M215.76,400.58c15.29,3.22,29.51-1.33,40.67-11.43s18.07-29,18.07-29l15.95,39.56s8.65,3.79,20.67,1.38,14.41-8.52,14.41-8.52-3.66-52.18-6.13-71.22c-3.48-26.85-6.73-42.57-9.43-50s-11.2-16.93-23.16-17.37-21.84,5.22-34.13,17.86-50.73,58.8-56.31,65.71-21,30.3-21,30.3S181.75,393.4,215.76,400.58Z" style="fill:#455a64"></path><path d="M299.85,401.79a91.57,91.57,0,0,1-4.79-12.36c-4.27-12.87-8.1-25.78-11.57-38.91-1.87-7.06-3.57-14.23-4.85-21.44q-1.14-6.37-1.87-12.79c-.25-2.18-.38-4.39-.71-6.56s-.93-4.09-2.63-5.38a3.53,3.53,0,0,0-4.84.29,21.87,21.87,0,0,0-3.37,5.11c-2.26,4-4.33,8.06-6.35,12.16-3.94,8-7.75,16.14-12.65,23.63A67.46,67.46,0,0,1,230.48,363a39.89,39.89,0,0,1-20.44,8.1c-7,.6-14.36-.85-20.2-4.9a27.16,27.16,0,0,1-7.68-8.45A61.63,61.63,0,0,1,177,346.24c-.2-.58.65-.56.84-.14.84,1.8,1.66,3.61,2.49,5.41a51.25,51.25,0,0,0,2.64,5,30.37,30.37,0,0,0,3.94,5.3,24.35,24.35,0,0,0,8.88,6,33.15,33.15,0,0,0,21.06.68c7.39-2.13,13.85-6.75,19.16-12.21a89.22,89.22,0,0,0,14-19.87c4.38-8.08,8.09-16.5,12.47-24.59,1.06-2,2.15-3.95,3.35-5.85a8,8,0,0,1,3.91-3.59,5.19,5.19,0,0,1,5,1.12,8.64,8.64,0,0,1,2.74,5.17c.4,2.12.5,4.3.73,6.44s.52,4.37.83,6.55c.61,4.28,1.35,8.55,2.23,12.78q1.47,7.14,3.43,14.16c1.25,4.51,10.14,34.29,11.48,38.28.69,2,4.7,12.63,5.38,14.67,0,.09.08.22.14.37Z" style="fill:#37474f"></path><path d="M262.63,301c-6.66,16.19-4.21,41.22,8.24,67.46,2.35-4.78,3.63-8.28,3.63-8.28C265.92,339.77,261.79,313.82,262.63,301Z" style="fill:#37474f"></path><path d="M358.24,427.62c.4,7.7,10.09,8.71,14.74,10.61,3,1.1,6.34,2.75,9.68,8.25,10.36,13.88,25.65,16.57,44.6,11.78,13.28-3.93,13.84-13.68,8.46-17.5C432.72,440.06,358.24,427.62,358.24,427.62Z" style="fill:#263238"></path><path d="M358.23,401.66c-1.1.54-1.42,1.27-1.11,3.53.76,5.53-1.53,15.91,1.12,22.43,4.77,8.19,18.41,6.89,23.78,12.84S392.6,454,408.11,455.34,434.62,450.59,437,446s-.68-8.42-11-12.6c-10.95-4.44-26.38-19.56-26.38-19.56a72.19,72.19,0,0,1-5.54-6.32,8.52,8.52,0,0,1-1.31-3.51l-1.11-4.36a4.27,4.27,0,0,0-.81-1.86,3.45,3.45,0,0,0-2.33-1,16.91,16.91,0,0,0-6.33.87c-1.36.39-2.7.81-4,1.27a14,14,0,0,0-5.26,2.79,4.66,4.66,0,0,0-1.35,2.14,6,6,0,0,0-.09,1.84,32.93,32.93,0,0,0,1,5.83c.11.45.14,1.08-.3,1.23a.84.84,0,0,1-.76-.25c-1.05-.87-1.56-2.24-2.52-3.22-1.62-1.66-4.1-1.87-6.21-2.52a7.14,7.14,0,0,1-3.27-1.82Z" style="fill:#37474f"></path><path d="M397.88,452.81c-2.39-12.87,18.54-28.4,31.38-19.7,4.5,2.54,11.16,8.15,8,13.1C432.65,456.8,403.68,458.59,397.88,452.81Z" style="fill:#fafafa"></path><path d="M378.28,419c2.6-2,8.39-10.31,18-9C393.87,400.93,371,418.44,378.28,419Z" style="fill:#fafafa"></path><path d="M401.52,415.63c-4.1-8-18.82,6.32-18.6,7.19-.84,1.47,1.56,2.62,2.33,1.18C386.32,422.1,393.52,414.82,401.52,415.63Z" style="fill:#fafafa"></path><path d="M415.58,427.27c-4.51-9.24-26,7.26-19.34,8.63C398.88,433.82,405.49,424.64,415.58,427.27Z" style="fill:#fafafa"></path><path d="M390.25,430.28c2.59-2,8.23-10.11,17.68-9C404.19,412.78,383.49,429.62,390.25,430.28Z" style="fill:#fafafa"></path></g></g></svg>